<svg xmlns="http://www.w3.org/2000/svg" viewBox="0 0 760 390"><defs><style>.b{fill:none;stroke:#76a7d3;stroke-width:8;stroke-linecap:round;stroke-linejoin:round;opacity:.62}.c{fill:#76a7d3;opacity:.38}.d{fill:#76a7d3;opacity:.22}</style></defs><g class="d"><circle cx="345" cy="69" r="4"/><circle cx="363" cy="72" r="4"/><circle cx="380" cy="78" r="4"/><circle cx="397" cy="88" r="4"/><circle cx="414" cy="98" r="4"/><circle cx="430" cy="108" r="4"/><circle cx="447" cy="118" r="4"/><circle cx="462" cy="130" r="4"/><circle cx="476" cy="144" r="4"/><circle cx="492" cy="155" r="4"/><circle cx="510" cy="164" r="4"/><circle cx="528" cy="176" r="4"/><circle cx="545" cy="188" r="4"/><circle cx="560" cy="203" r="4"/><circle cx="575" cy="215" r="4"/><circle cx="589" cy="230" r="4"/><circle cx="604" cy="242" r="4"/><circle cx="620" cy="254" r="4"/><circle cx="635" cy="270" r="4"/><circle cx="650" cy="285" r="4"/><circle cx="667" cy="300" r="4"/><circle cx="684" cy="315" r="4"/><circle cx="702" cy="330" r="4"/><circle cx="310" cy="92" r="4"/><circle cx="328" cy="95" r="4"/><circle cx="344" cy="101" r="4"/><circle cx="360" cy="108" r="4"/><circle cx="376" cy="117" r="4"/><circle cx="392" cy="127" r="4"/><circle cx="408" cy="137" r="4"/><circle cx="424" cy="148" r="4"/><circle cx="440" cy="159" r="4"/><circle cx="456" cy="170" r="4"/><circle cx="472" cy="181" r="4"/><circle cx="488" cy="192" r="4"/><circle cx="504" cy="203" r="4"/><circle cx="520" cy="214" r="4"/><circle cx="536" cy="225" r="4"/><circle cx="552" cy="236" r="4"/><circle cx="568" cy="247" r="4"/><circle cx="584" cy="258" r="4"/><circle cx="600" cy="269" r="4"/><circle cx="616" cy="280" r="4"/><circle cx="632" cy="291" r="4"/></g><g class="c"><path d="M92 165h48v162H92z" rx="22"/><circle cx="116" cy="122" r="30"/><path d="M210 137h52v190h-52z" rx="25"/><circle cx="236" cy="91" r="32"/><path d="M332 105h60v222h-60z" rx="30"/><circle cx="362" cy="57" r="35"/><path d="M478 146h52v181h-52z" rx="25"/><circle cx="504" cy="100" r="32"/><path d="M625 124h55v203h-55z" rx="26"/><circle cx="652" cy="78" r="33"/><path d="M160 215h36v112h-36z" rx="18"/><circle cx="178" cy="185" r="22"/><path d="M414 225h32v102h-32z" rx="16"/><circle cx="430" cy="198" r="20"/></g><g class="b"><path d="M140 230c22 18 43 18 70 0M262 210c24 27 45 28 70 0M392 206c27 28 57 27 86 0M530 218c26 22 58 22 95 0"/><circle cx="563" cy="265" r="44"/><path d="M563 221v88M519 266h88M604 266h28c16 0 26 13 26 28v33"/></g></svg>