<svg xmlns="http://www.w3.org/2000/svg" viewBox="0 0 850 430">
<g fill="#6fa1cf" opacity=".55"><circle cx="378" cy="85" r="5"/><circle cx="392" cy="88" r="5"/><circle cx="406" cy="92" r="5"/><circle cx="420" cy="97" r="5"/><circle cx="430" cy="110" r="5"/><circle cx="440" cy="122" r="5"/><circle cx="448" cy="137" r="5"/><circle cx="458" cy="152" r="5"/><circle cx="470" cy="166" r="5"/><circle cx="482" cy="180" r="5"/><circle cx="492" cy="195" r="5"/><circle cx="505" cy="210" r="5"/><circle cx="515" cy="225" r="5"/><circle cx="528" cy="240" r="5"/><circle cx="548" cy="245" r="5"/><circle cx="565" cy="252" r="5"/><circle cx="580" cy="265" r="5"/><circle cx="600" cy="275" r="5"/><circle cx="620" cy="290" r="5"/><circle cx="640" cy="302" r="5"/><circle cx="520" cy="100" r="5"/><circle cx="540" cy="116" r="5"/><circle cx="556" cy="132" r="5"/><circle cx="575" cy="150" r="5"/><circle cx="598" cy="170" r="5"/><circle cx="620" cy="190" r="5"/><circle cx="644" cy="210" r="5"/><circle cx="665" cy="230" r="5"/></g>
<g fill="#0f4c81" opacity=".45"><path d="M115 182c20 0 31 18 31 41v100H84V223c0-23 11-41 31-41z"/><circle cx="115" cy="155" r="24"/><path d="M195 150c24 0 38 22 38 50v128h-76V200c0-28 14-50 38-50z"/><circle cx="195" cy="119" r="28"/><path d="M290 188c18 0 29 18 29 43v92h-58v-92c0-25 11-43 29-43z"/><circle cx="290" cy="163" r="22"/><path d="M388 120c31 0 48 30 48 67v147h-96V187c0-37 17-67 48-67z"/><circle cx="388" cy="82" r="34"/><path d="M502 210c17 0 27 17 27 38v82h-54v-82c0-21 10-38 27-38z"/><circle cx="502" cy="188" r="20"/><path d="M595 175c22 0 36 23 36 51v105h-72V226c0-28 14-51 36-51z"/><circle cx="595" cy="145" r="27"/><path d="M730 136c27 0 44 27 44 62v135h-88V198c0-35 17-62 44-62z"/><circle cx="730" cy="102" r="31"/><circle cx="550" cy="273" r="46" fill="none" stroke="#0f4c81" stroke-width="9"/><path d="M550 222v51h50" fill="none" stroke="#0f4c81" stroke-width="9" stroke-linecap="round"/><path d="M146 250c25-20 51-20 77 0M319 247c26-24 59-25 85 0M631 248c33-25 69-25 101 0" fill="none" stroke="#0f4c81" stroke-width="8" stroke-linecap="round" opacity=".65"/></g>
</svg>
