<svg xmlns="http://www.w3.org/2000/svg" viewBox="0 0 1600 620" preserveAspectRatio="none"><defs><linearGradient id="g" x1="0" x2="1"><stop stop-color="#d8ebfa"/><stop offset="1" stop-color="#b8d8f0"/></linearGradient></defs><path d="M0 410 C260 260 430 520 690 360 C910 225 1120 250 1600 110 L1600 620 L0 620Z" fill="url(#g)" opacity=".45"/><path d="M0 500 C280 340 480 560 760 390 C1030 225 1260 330 1600 160" fill="none" stroke="#7aaedf" stroke-width="2" opacity=".45"/><g opacity=".22" stroke="#7aaedf" fill="none"><path d="M0 470 C260 320 520 520 780 370 S1280 270 1600 170"/><path d="M0 445 C260 300 520 500 790 350 S1280 250 1600 145"/><path d="M0 420 C260 280 520 480 800 330 S1280 230 1600 120"/><path d="M0 395 C260 260 520 460 810 310 S1280 210 1600 95"/></g></svg>